# xmcd
#
# Track frame offsets:
#	150
#	26794
#	46517
#	74493
#	101779
#	128110
#	158842
#	183234
#	207881
#	230227
#
# Disc length: 3473 seconds
#
# Revision: 0
# Processed by: cddbd v1.5.2PL0 Copyright (c) Steve Scherf et al.
# Submitted via: EZCDAudioConverter 3.1.7.1
#
DISCID=890d8f0a
DTITLE=Frank Cottrell Boyce - Cosmic
DYEAR=2009
DGENRE=Books and Spoken
TTITLE0=Disc 5 Track 1
TTITLE1=Disc 5 Track 2
TTITLE2=Disc 5 Track 3
TTITLE3=Disc 5 Track 4
TTITLE4=Disc 5 Track 5
TTITLE5=Disc 5 Track 6
TTITLE6=Disc 5 Track 7
TTITLE7=Disc 5 Track 8
TTITLE8=Disc 5 Track 9
TTITLE9=Disc 5 Track 10
EXTD=
EXTT0=
EXTT1=
EXTT2=
EXTT3=
EXTT4=
EXTT5=
EXTT6=
EXTT7=
EXTT8=
EXTT9=
PLAYORDER=
